<?xml version="1.0" encoding="utf-8"?>
<!-- Generator: Adobe Illustrator 25.4.1, SVG Export Plug-In . SVG Version: 6.00 Build 0)  -->
<svg version="1.1" id="Layer_1" xmlns="http://www.w3.org/2000/svg" xmlns:xlink="http://www.w3.org/1999/xlink" x="0px" y="0px"
	 viewBox="0 0 154.31 108.63" style="enable-background:new 0 0 154.31 108.63;" xml:space="preserve">
<style type="text/css">
	.st0{fill:#F3E852;stroke:#FFFFFF;stroke-width:3;stroke-miterlimit:10;}
	.st1{fill:#F59B3D;stroke:#FFFFFF;stroke-width:3;stroke-miterlimit:10;}
	.st2{fill:#E94A27;stroke:#FFFFFF;stroke-width:3;stroke-miterlimit:10;}
	.st3{fill:#DD0A81;stroke:#FFFFFF;stroke-width:3;stroke-miterlimit:10;}
	.st4{fill:#65328A;stroke:#FFFFFF;stroke-width:3;stroke-miterlimit:10;}
	.st5{fill:#FFFFFF;}
</style>
<g>
	<path class="st0" d="M64.21,60.71c-16.62-7.47-37.8-12.63-59.2-15.05c12.37,17.63,22.42,32.83,41.51,43.85s34.07,12.14,40.04,1.79
		C92.54,80.95,84.32,69.75,64.21,60.71z"/>
	<path class="st1" d="M80.14,58.74C68.15,45.02,51.05,31.5,32.62,20.37c3.88,21.18,6.68,39.19,19.43,57.17s25.89,25.25,35.64,18.33
		C97.44,88.96,94.64,75.35,80.14,58.74z"/>
	<path class="st2" d="M96.06,65.85c-2.04-18.11-8.4-38.96-17.21-58.6c-8.87,19.62-16.82,36.02-16.58,58.06s6.91,35.5,18.86,35.36
		S98.53,87.76,96.06,65.85z"/>
	<path class="st3" d="M105.84,75.86c7.58-16.58,12.86-37.72,15.42-59.1c-17.7,12.26-32.97,22.21-44.11,41.23S64.8,91.98,75.11,98.02
		C85.43,104.06,96.68,95.91,105.84,75.86z"/>
	<path class="st4" d="M109.39,87.21c14.09-11.56,28.12-28.24,39.82-46.32c-21.29,3.23-39.38,5.47-57.74,17.66
		S65.43,83.66,72.04,93.62S92.34,101.2,109.39,87.21z"/>
	<circle class="st5" cx="105.82" cy="112.74" r="2.68"/>
</g>
</svg>
