<?xml version="1.0" encoding="utf-8"?>
<!-- Generator: Adobe Illustrator 25.4.1, SVG Export Plug-In . SVG Version: 6.00 Build 0)  -->
<svg version="1.1" id="Layer_1" xmlns="http://www.w3.org/2000/svg" xmlns:xlink="http://www.w3.org/1999/xlink" x="0px" y="0px"
	 viewBox="0 0 429.82 108.63" style="enable-background:new 0 0 429.82 108.63;" xml:space="preserve">
<style type="text/css">
	.st0{fill:#65328A;}
	.st1{fill:#F3E852;stroke:#FFFFFF;stroke-width:3;stroke-miterlimit:10;}
	.st2{fill:#F59B3D;stroke:#FFFFFF;stroke-width:3;stroke-miterlimit:10;}
	.st3{fill:#E94A27;stroke:#FFFFFF;stroke-width:3;stroke-miterlimit:10;}
	.st4{fill:#DD0A81;stroke:#FFFFFF;stroke-width:3;stroke-miterlimit:10;}
	.st5{fill:#65328A;stroke:#FFFFFF;stroke-width:3;stroke-miterlimit:10;}
	.st6{fill:#FFFFFF;}
</style>
<g>
	<path class="st0" d="M199.2,38.52l-7.16,4.25c-1.34-2.32-2.62-3.84-3.83-4.55c-1.26-0.81-2.89-1.21-4.89-1.21
		c-2.45,0-4.49,0.7-6.1,2.08c-1.62,1.36-2.43,3.08-2.43,5.16c0,2.86,2.12,5.16,6.37,6.9l5.84,2.39c4.75,1.92,8.23,4.26,10.42,7.03
		c2.2,2.77,3.3,6.16,3.3,10.18c0,5.38-1.79,9.83-5.38,13.34c-3.61,3.54-8.1,5.31-13.46,5.31c-5.08,0-9.27-1.5-12.58-4.51
		c-3.26-3.01-5.29-7.24-6.1-12.7l8.95-1.97c0.4,3.44,1.11,5.81,2.12,7.13c1.82,2.53,4.47,3.79,7.96,3.79c2.75,0,5.04-0.92,6.86-2.77
		s2.73-4.18,2.73-7.01c0-1.14-0.16-2.18-0.47-3.13c-0.32-0.95-0.81-1.82-1.48-2.62c-0.67-0.8-1.54-1.54-2.6-2.24
		c-1.06-0.69-2.33-1.36-3.79-1.99l-5.65-2.35c-8.01-3.39-12.02-8.34-12.02-14.86c0-4.4,1.68-8.08,5.04-11.03
		c3.36-2.98,7.54-4.47,12.55-4.47C190.14,28.67,195.41,31.95,199.2,38.52z"/>
	<path class="st0" d="M218.27,51.41V72.6c0,6.12,2.41,9.17,7.24,9.17s7.24-3.06,7.24-9.17V51.41h8.53v21.38
		c0,2.96-0.37,5.51-1.1,7.66c-0.71,1.92-1.93,3.65-3.68,5.19c-2.88,2.5-6.55,3.75-10.99,3.75c-4.42,0-8.07-1.25-10.96-3.75
		c-1.77-1.54-3.02-3.27-3.75-5.19c-0.71-1.72-1.06-4.27-1.06-7.66V51.41H218.27z"/>
	<path class="st0" d="M252.04,51.41h8.57v3.41c2.98-2.96,6.34-4.43,10.08-4.43c4.3,0,7.64,1.35,10.05,4.06
		c2.07,2.3,3.11,6.05,3.11,11.26v22.63h-8.57V67.71c0-3.64-0.51-6.15-1.52-7.54c-0.99-1.42-2.78-2.12-5.38-2.12
		c-2.83,0-4.84,0.94-6.03,2.81c-1.16,1.84-1.74,5.07-1.74,9.67v17.82h-8.57V51.41z"/>
	<path class="st0" d="M303.14,24.31v31.39c3.41-3.54,7.28-5.31,11.6-5.31c4.98,0,9.12,1.86,12.43,5.57
		c3.31,3.69,4.97,8.29,4.97,13.8c0,5.69-1.67,10.39-5,14.1c-3.31,3.69-7.49,5.54-12.55,5.54c-4.27,0-8.09-1.64-11.45-4.93v3.87
		h-8.53V24.31H303.14z M323.43,70.14c0-3.54-0.96-6.42-2.88-8.64c-1.95-2.27-4.39-3.41-7.32-3.41c-3.13,0-5.69,1.1-7.66,3.3
		c-1.95,2.17-2.92,5-2.92,8.49c0,3.59,0.96,6.46,2.88,8.61c1.92,2.2,4.45,3.3,7.58,3.3c2.96,0,5.41-1.1,7.35-3.3
		C322.44,76.25,323.43,73.47,323.43,70.14z"/>
	<path class="st0" d="M339.88,36.06c0-1.49,0.54-2.78,1.63-3.87c1.09-1.09,2.39-1.63,3.9-1.63c1.54,0,2.86,0.54,3.94,1.63
		c1.09,1.06,1.63,2.36,1.63,3.9c0,1.54-0.54,2.86-1.63,3.94c-1.06,1.09-2.36,1.63-3.9,1.63c-1.54,0-2.86-0.54-3.94-1.63
		C340.42,38.95,339.88,37.62,339.88,36.06z M349.7,51.41v36.92h-8.53V51.41H349.7z"/>
	<path class="st0" d="M360.5,51.41h8.53v3.3c1.57-1.64,2.96-2.77,4.17-3.37c1.24-0.63,2.7-0.95,4.4-0.95c2.25,0,4.6,0.73,7.05,2.2
		l-3.9,7.81c-1.62-1.16-3.2-1.74-4.74-1.74c-4.65,0-6.98,3.51-6.98,10.54v19.14h-8.53V51.41z"/>
	<path class="st0" d="M416.23,24.31h8.57v64.03h-8.57v-3.87c-3.36,3.29-7.17,4.93-11.41,4.93c-5.05,0-9.25-1.84-12.58-5.54
		c-3.31-3.77-4.97-8.47-4.97-14.1c0-5.51,1.65-10.11,4.97-13.8c3.29-3.71,7.42-5.57,12.4-5.57c4.32,0,8.19,1.77,11.6,5.31V24.31z
		 M395.98,69.76c0,3.54,0.95,6.42,2.84,8.64c1.95,2.25,4.4,3.37,7.35,3.37c3.16,0,5.71-1.09,7.66-3.26c1.95-2.25,2.92-5.1,2.92-8.57
		c0-3.46-0.97-6.32-2.92-8.57c-1.95-2.2-4.47-3.3-7.58-3.3c-2.93,0-5.38,1.11-7.35,3.34C396.96,63.67,395.98,66.45,395.98,69.76z"/>
</g>
<g>
	<path class="st1" d="M67.27,60.71c-16.62-7.47-37.8-12.63-59.2-15.05c12.37,17.63,22.42,32.83,41.51,43.85s34.07,12.14,40.04,1.79
		C95.6,80.95,87.38,69.75,67.27,60.71z"/>
	<path class="st2" d="M83.2,58.74C71.21,45.02,54.11,31.5,35.68,20.37c3.88,21.18,6.68,39.19,19.43,57.17S81,102.79,90.75,95.87
		C100.5,88.96,97.7,75.35,83.2,58.74z"/>
	<path class="st3" d="M99.12,65.85c-2.04-18.11-8.4-38.96-17.21-58.6c-8.87,19.62-16.82,36.02-16.58,58.06s6.91,35.5,18.86,35.36
		S101.59,87.76,99.12,65.85z"/>
	<path class="st4" d="M108.9,75.86c7.58-16.58,12.86-37.72,15.42-59.1c-17.7,12.26-32.97,22.21-44.11,41.23s-12.35,33.99-2.04,40.03
		C88.49,104.06,99.74,95.91,108.9,75.86z"/>
	<path class="st5" d="M112.45,87.21c14.09-11.56,28.12-28.24,39.82-46.32c-21.29,3.23-39.38,5.47-57.74,17.66
		S68.49,83.66,75.1,93.62S95.4,101.2,112.45,87.21z"/>
	<circle class="st6" cx="108.88" cy="112.74" r="2.68"/>
</g>
</svg>
